<?xml version="1.0" encoding="utf-8"?>
<!-- Generator: Adobe Illustrator 15.0.2, SVG Export Plug-In . SVG Version: 6.00 Build 0)  -->
<!DOCTYPE svg PUBLIC "-//W3C//DTD SVG 1.1//EN" "http://www.w3.org/Graphics/SVG/1.1/DTD/svg11.dtd">
<svg version="1.1" id="レイヤー_1" xmlns="http://www.w3.org/2000/svg" xmlns:xlink="http://www.w3.org/1999/xlink" x="0px"
     y="0px" width="124px" height="40px" viewBox="0 0 124 40" enable-background="new 0 0 124 40" xml:space="preserve">
<path fill="#FFFFFF" d="M117.791,0H6.207C2.793,0,0,2.794,0,6.211V34.6C0,37.568,2.428,40,5.398,40h113.205
    c2.969,0,5.396-2.432,5.396-5.4V6.211C124,2.794,121.207,0,117.791,0z"/>
<g>
    <path fill="#FF7D00" d="M37.992,32.346c0,2.302-1.88,4.186-4.182,4.186H7.652c-2.301,0-4.183-1.884-4.183-4.186V7.653
        c0-2.302,1.882-4.184,4.183-4.184h26.158c2.301,0,4.182,1.882,4.182,4.184V32.346z"/>
    <g>
        <g>
            <path fill="#FFFFFF" d="M12.017,17.352c0-0.452,0.383-0.816,0.855-0.816h2.168c0.194,0,0.336-0.088,0.517-0.211
                c1.382-0.944,3.071-1.5,4.899-1.5c4.662,0,8.439,3.618,8.439,8.083v7.416c0,0.455-0.384,0.819-0.856,0.819h-2.75
                c-0.473,0-0.857-0.364-0.857-0.819v-7.416c0-2.104-1.778-3.808-3.976-3.808c-2.196,0-3.975,1.703-3.975,3.808v7.416
                c0,0.455-0.384,0.819-0.859,0.819h-2.75c-0.473,0-0.856-0.364-0.856-0.819V17.352z"/>
            <path fill="#FFFFFF" d="M14.916,11.347c1.689-0.751,3.574-1.171,5.563-1.171c4.484,0,8.439,2.139,10.834,5.401
                c0.199,0.269,0.575,0.324,0.84,0.128c0.269-0.202,0.325-0.578,0.127-0.847c-2.617-3.567-6.933-5.894-11.802-5.894
                c-2.159,0-4.208,0.458-6.05,1.277c-0.304,0.133-0.44,0.492-0.306,0.798C14.259,11.347,14.613,11.482,14.916,11.347"/>
            <path fill="#FFFFFF" d="M29.513,17.396c-0.186,0-0.365-0.082-0.483-0.244c-1.964-2.656-5.168-4.244-8.573-4.244
                c-1.521,0-2.99,0.303-4.36,0.902c-0.303,0.133-0.657-0.003-0.789-0.309c-0.133-0.301,0.006-0.654,0.309-0.788
                c1.523-0.668,3.152-1.006,4.84-1.006c3.784,0,7.348,1.77,9.539,4.733c0.194,0.266,0.138,0.642-0.128,0.839
                C29.76,17.359,29.635,17.396,29.513,17.396"/>
        </g>
    </g>
</g>
<g>
    <path fill="#787878" d="M90.92,30.943c-2.498,0-4.532-2.028-4.532-4.516c0-2.49,2.034-4.518,4.532-4.518
        c2.497,0,4.529,2.027,4.529,4.518C95.449,28.915,93.417,30.943,90.92,30.943z M93.532,26.428c0-1.484-1.173-2.688-2.612-2.688
        c-1.443,0-2.617,1.203-2.617,2.688c0,1.479,1.174,2.682,2.617,2.682C92.359,29.109,93.532,27.907,93.532,26.428"/>
    <polygon fill="#787878" points="67.748,30.678 67.748,23.867 65.441,23.867 65.441,22.152 71.955,22.152 71.955,23.867 
        69.641,23.867 69.641,30.678     "/>
    <path fill="#787878" d="M58.648,30.678c-0.609,0-0.988-0.379-0.988-0.993v-6.54c0-0.611,0.379-0.99,0.988-0.99l4.926-0.002v1.715
        h-4.026v1.723h3.362v1.615h-3.362v1.756h4.026v1.717H58.648z"/>
    <path fill="#787878" d="M104.584,30.678l-2.104-3.175c1.101-0.378,1.826-1.352,1.826-2.592c0-1.597-1.21-2.759-2.88-2.759h-3.078
        c-0.609,0-0.987,0.377-0.987,0.989v7.536h1.887v-3.002h1.213l1.901,3.002H104.584z M99.248,23.865h2.029
        c0.67,0,1.138,0.453,1.138,1.097c0,0.646-0.468,1.096-1.138,1.096h-2.029V23.865z"/>
    <path fill="#787878" d="M79.578,25.635l1.365,3.97c0.277,0.802,0.537,1.147,1.088,1.147c0.459,0,0.828-0.264,1.136-1.147
        l2.563-7.455h-2.077l-1.663,5.164L80.653,23.2c-0.258-0.806-0.559-1.104-1.075-1.104c-0.514,0-0.816,0.299-1.074,1.104
        l-1.338,4.113l-1.66-5.164h-2.08l2.568,7.455c0.305,0.884,0.673,1.147,1.129,1.147c0.554,0,0.814-0.346,1.091-1.147L79.578,25.635z
        "/>
    <polygon fill="#787878" points="111.76,30.678 114.121,30.678 110.791,25.63 113.738,22.152 111.323,22.152 108.408,25.608 
        108.408,22.152 106.52,22.152 106.52,30.678 108.408,30.678 108.408,28.33 109.478,27.096     "/>
    <path fill="#787878" d="M49.725,30.678h-1.891v-7.595c0-0.585,0.354-0.987,1.025-0.987c0.285,0,0.637,0.146,1.006,0.631
        l3.567,4.696v-5.271h1.888v7.594c0,0.582-0.354,0.987-1.026,0.987c-0.284,0-0.636-0.149-1.002-0.634l-3.569-4.696L49.725,30.678z"
        />
</g>
<g>
    <polygon fill="#787878" points="72.932,18.07 72.932,11.059 70.549,11.059 70.549,9.769 76.789,9.769 76.789,11.059 74.402,11.059 
        74.402,18.07     "/>
    <rect x="57.525" y="9.769" fill="#787878" width="1.469" height="8.302"/>
    <path fill="#787878" d="M79.438,18.07c-0.494,0-0.779-0.285-0.779-0.774v-6.748c0-0.497,0.285-0.779,0.779-0.779h4.836v1.29H80.13
        v2.265h3.46v1.192h-3.46v2.271h4.144v1.283H79.438z"/>
    <path fill="#787878" d="M99.645,9.769h-2.527c-0.494,0-0.779,0.282-0.779,0.779v6.743c0,0.494,0.285,0.779,0.779,0.779h2.527
        c2.516,0,4.338-1.74,4.338-4.15C103.982,11.514,102.16,9.769,99.645,9.769 M99.607,16.779h-1.801v-5.723h1.801
        c1.721,0,2.91,1.205,2.91,2.863C102.518,15.582,101.328,16.779,99.607,16.779"/>
    <path fill="#787878" d="M109.955,18.26c-2.396,0-4.345-1.943-4.345-4.332c0-2.39,1.949-4.338,4.345-4.338
        c2.4,0,4.35,1.948,4.35,4.338C114.305,16.316,112.355,18.26,109.955,18.26z M109.955,11.014c-1.576,0-2.86,1.307-2.86,2.914
        c0,1.606,1.284,2.912,2.86,2.912c1.582,0,2.866-1.306,2.866-2.912C112.821,12.32,111.537,11.014,109.955,11.014z"/>
    <path fill="#787878" d="M55.076,9.769h-1.469v5.782l-3.971-5.29c-0.337-0.449-0.588-0.575-0.891-0.575
        c-0.585,0-0.912,0.384-0.912,0.913v7.479h1.468v-5.799l3.974,5.293c0.336,0.45,0.586,0.575,0.889,0.575
        c0.585,0,0.912-0.383,0.912-0.912V9.769z"/>
    <path fill="#787878" d="M68.682,9.769h-1.469v5.782l-3.966-5.29c-0.335-0.449-0.585-0.575-0.888-0.575
        c-0.588,0-0.913,0.384-0.913,0.913v7.479h1.469v-5.799l3.969,5.293c0.332,0.45,0.582,0.575,0.886,0.575
        c0.588,0,0.912-0.383,0.912-0.912V9.769z"/>
    <path fill="#787878" d="M93.892,9.758H92.42v5.785l-3.969-5.29c-0.337-0.45-0.588-0.575-0.891-0.575
        c-0.585,0-0.912,0.381-0.912,0.91v7.482h1.471l-0.002-5.798l3.971,5.29c0.338,0.449,0.588,0.576,0.891,0.576
        c0.588,0,0.913-0.383,0.913-0.912V9.758z"/>
</g>
</svg>
